<svg width="323" height="56" viewBox="0 0 323 56" fill="none" xmlns="http://www.w3.org/2000/svg">
<g filter="url(#filter0_d_3_163)">
<path d="M37.96 5.42V11.96H25.18V47H17.56V11.96H4.78V5.42H37.96ZM43.7261 47V5.42H70.4261V11.84H51.2861V22.1H68.3261V28.4H51.2861V40.58H71.8661V47H43.7261ZM107.361 47C106.801 45.36 106.221 43.74 105.621 42.14C105.021 40.54 104.441 38.9 103.881 37.22H86.3613C85.8013 38.9 85.2213 40.56 84.6213 42.2C84.0613 43.8 83.5013 45.4 82.9413 47H75.0813C76.6413 42.56 78.1213 38.46 79.5213 34.7C80.9213 30.94 82.2813 27.38 83.6012 24.02C84.9613 20.66 86.3013 17.46 87.6213 14.42C88.9413 11.38 90.3013 8.38 91.7013 5.42H98.8413C100.241 8.38 101.601 11.38 102.921 14.42C104.241 17.46 105.561 20.66 106.881 24.02C108.241 27.38 109.621 30.94 111.021 34.7C112.461 38.46 113.961 42.56 115.521 47H107.361ZM95.1213 13.46C94.2013 15.58 93.1413 18.16 91.9413 21.2C90.7813 24.24 89.5613 27.54 88.2813 31.1H101.961C100.681 27.54 99.4413 24.22 98.2413 21.14C97.0413 18.06 96.0013 15.5 95.1213 13.46ZM129.837 5.42C130.717 6.94 131.697 8.8 132.777 11C133.857 13.2 134.957 15.52 136.077 17.96C137.197 20.36 138.297 22.82 139.377 25.34C140.497 27.82 141.517 30.12 142.437 32.24C143.357 30.12 144.357 27.82 145.437 25.34C146.517 22.82 147.617 20.36 148.737 17.96C149.857 15.52 150.957 13.2 152.037 11C153.117 8.8 154.097 6.94 154.977 5.42H161.817C162.177 8.46 162.517 11.7 162.837 15.14C163.157 18.54 163.437 22.04 163.677 25.64C163.957 29.2 164.197 32.8 164.397 36.44C164.637 40.04 164.837 43.56 164.997 47H157.557C157.397 42.16 157.197 37.18 156.957 32.06C156.757 26.94 156.437 21.98 155.997 17.18C155.557 18.1 155.037 19.2 154.437 20.48C153.837 21.76 153.197 23.16 152.517 24.68C151.837 26.16 151.137 27.7 150.417 29.3C149.737 30.9 149.057 32.46 148.377 33.98C147.737 35.46 147.137 36.86 146.577 38.18C146.017 39.46 145.537 40.56 145.137 41.48H139.497C139.097 40.56 138.617 39.44 138.057 38.12C137.497 36.8 136.877 35.4 136.197 33.92C135.557 32.4 134.877 30.84 134.157 29.24C133.477 27.64 132.797 26.1 132.117 24.62C131.437 23.14 130.797 21.76 130.197 20.48C129.597 19.16 129.077 18.06 128.637 17.18C128.197 21.98 127.857 26.94 127.617 32.06C127.417 37.18 127.237 42.16 127.077 47H119.637C119.797 43.56 119.977 40 120.177 36.32C120.417 32.64 120.657 29 120.897 25.4C121.177 21.76 121.477 18.24 121.797 14.84C122.117 11.44 122.457 8.3 122.817 5.42H129.837ZM186.344 47.48C184.144 47.48 181.924 47.4 179.684 47.24C177.444 47.12 175.484 46.84 173.804 46.4V6.02C174.684 5.86 175.624 5.72 176.624 5.6C177.624 5.44 178.644 5.32 179.684 5.24C180.724 5.16 181.744 5.1 182.744 5.06C183.784 5.02 184.764 5 185.684 5C188.204 5 190.544 5.2 192.704 5.6C194.864 5.96 196.724 6.58 198.284 7.46C199.884 8.34 201.124 9.5 202.004 10.94C202.884 12.38 203.324 14.16 203.324 16.28C203.324 18.24 202.844 19.92 201.884 21.32C200.964 22.72 199.664 23.84 197.984 24.68C200.504 25.52 202.364 26.76 203.564 28.4C204.764 30.04 205.364 32.12 205.364 34.64C205.364 38.92 203.804 42.14 200.684 44.3C197.564 46.42 192.784 47.48 186.344 47.48ZM181.244 28.28V40.94C182.084 41.02 182.984 41.08 183.944 41.12C184.904 41.16 185.784 41.18 186.584 41.18C188.144 41.18 189.584 41.08 190.904 40.88C192.264 40.68 193.424 40.34 194.384 39.86C195.384 39.34 196.164 38.66 196.724 37.82C197.324 36.98 197.624 35.9 197.624 34.58C197.624 32.22 196.764 30.58 195.044 29.66C193.324 28.74 190.944 28.28 187.904 28.28H181.244ZM181.244 22.34H186.584C189.464 22.34 191.724 21.94 193.364 21.14C195.004 20.3 195.824 18.82 195.824 16.7C195.824 14.7 194.964 13.28 193.244 12.44C191.564 11.6 189.364 11.18 186.644 11.18C185.484 11.18 184.444 11.2 183.524 11.24C182.644 11.28 181.884 11.34 181.244 11.42V22.34ZM223.798 47.6C221.638 47.56 219.838 47.32 218.398 46.88C216.998 46.44 215.878 45.82 215.038 45.02C214.198 44.18 213.598 43.16 213.238 41.96C212.918 40.72 212.758 39.32 212.758 37.76V1.64L220.018 0.439999V36.38C220.018 37.26 220.078 38 220.198 38.6C220.358 39.2 220.618 39.72 220.978 40.16C221.338 40.56 221.818 40.88 222.418 41.12C223.058 41.32 223.858 41.48 224.818 41.6L223.798 47.6ZM241.73 41.9C243.97 41.9 245.67 41.78 246.83 41.54V33.5C246.43 33.38 245.85 33.26 245.09 33.14C244.33 33.02 243.49 32.96 242.57 32.96C241.77 32.96 240.95 33.02 240.11 33.14C239.31 33.26 238.57 33.48 237.89 33.8C237.25 34.12 236.73 34.58 236.33 35.18C235.93 35.74 235.73 36.46 235.73 37.34C235.73 39.06 236.27 40.26 237.35 40.94C238.43 41.58 239.89 41.9 241.73 41.9ZM241.13 14.84C243.53 14.84 245.55 15.14 247.19 15.74C248.83 16.34 250.13 17.18 251.09 18.26C252.09 19.34 252.79 20.66 253.19 22.22C253.63 23.74 253.85 25.42 253.85 27.26V46.28C252.73 46.52 251.03 46.8 248.75 47.12C246.51 47.48 243.97 47.66 241.13 47.66C239.25 47.66 237.53 47.48 235.97 47.12C234.41 46.76 233.07 46.18 231.95 45.38C230.87 44.58 230.01 43.54 229.37 42.26C228.77 40.98 228.47 39.4 228.47 37.52C228.47 35.72 228.81 34.2 229.49 32.96C230.21 31.72 231.17 30.72 232.37 29.96C233.57 29.16 234.95 28.6 236.51 28.28C238.11 27.92 239.77 27.74 241.49 27.74C242.29 27.74 243.13 27.8 244.01 27.92C244.89 28 245.83 28.16 246.83 28.4V27.2C246.83 26.36 246.73 25.56 246.53 24.8C246.33 24.04 245.97 23.38 245.45 22.82C244.97 22.22 244.31 21.76 243.47 21.44C242.67 21.12 241.65 20.96 240.41 20.96C238.73 20.96 237.19 21.08 235.79 21.32C234.39 21.56 233.25 21.84 232.37 22.16L231.47 16.28C232.39 15.96 233.73 15.64 235.49 15.32C237.25 15 239.13 14.84 241.13 14.84ZM261.001 31.34C261.001 29.02 261.361 26.86 262.081 24.86C262.801 22.82 263.821 21.06 265.141 19.58C266.501 18.1 268.141 16.94 270.061 16.1C271.981 15.26 274.141 14.84 276.541 14.84C279.501 14.84 282.301 15.38 284.941 16.46L283.381 22.4C282.541 22.04 281.581 21.74 280.501 21.5C279.461 21.26 278.341 21.14 277.141 21.14C274.301 21.14 272.141 22.04 270.661 23.84C269.181 25.6 268.441 28.1 268.441 31.34C268.441 34.46 269.141 36.94 270.541 38.78C271.941 40.58 274.301 41.48 277.621 41.48C278.861 41.48 280.081 41.36 281.281 41.12C282.481 40.88 283.521 40.58 284.401 40.22L285.421 46.22C284.621 46.62 283.401 46.98 281.761 47.3C280.161 47.62 278.501 47.78 276.781 47.78C274.101 47.78 271.761 47.38 269.761 46.58C267.801 45.74 266.161 44.6 264.841 43.16C263.561 41.68 262.601 39.94 261.961 37.94C261.321 35.9 261.001 33.7 261.001 31.34ZM298.302 27.86C299.222 26.9 300.202 25.88 301.242 24.8C302.282 23.68 303.302 22.58 304.302 21.5C305.302 20.38 306.242 19.32 307.122 18.32C308.042 17.28 308.822 16.38 309.462 15.62H318.042C316.042 17.86 313.922 20.18 311.682 22.58C309.482 24.98 307.262 27.32 305.022 29.6C306.222 30.6 307.482 31.82 308.802 33.26C310.122 34.66 311.402 36.16 312.642 37.76C313.882 39.36 315.042 40.96 316.122 42.56C317.202 44.16 318.102 45.64 318.822 47H310.422C309.702 45.76 308.862 44.46 307.902 43.1C306.982 41.74 305.982 40.42 304.902 39.14C303.822 37.86 302.722 36.66 301.602 35.54C300.482 34.38 299.382 33.4 298.302 32.6V47H291.042V1.64L298.302 0.439999V27.86Z" fill="white"/>
</g>
<defs>
<filter id="filter0_d_3_163" x="0.779785" y="0.440002" width="322.042" height="55.34" filterUnits="userSpaceOnUse" color-interpolation-filters="sRGB">
<feFlood flood-opacity="0" result="BackgroundImageFix"/>
<feColorMatrix in="SourceAlpha" type="matrix" values="0 0 0 0 0 0 0 0 0 0 0 0 0 0 0 0 0 0 127 0" result="hardAlpha"/>
<feOffset dy="4"/>
<feGaussianBlur stdDeviation="2"/>
<feComposite in2="hardAlpha" operator="out"/>
<feColorMatrix type="matrix" values="0 0 0 0 0 0 0 0 0 0 0 0 0 0 0 0 0 0 0.25 0"/>
<feBlend mode="normal" in2="BackgroundImageFix" result="effect1_dropShadow_3_163"/>
<feBlend mode="normal" in="SourceGraphic" in2="effect1_dropShadow_3_163" result="shape"/>
</filter>
</defs>
</svg>
